TITLE ""
FILE "DISC1Track33.mp3" MP3
  TRACK 01 AUDIO
    TITLE "DISC1Track33_01"
    INDEX 01 00:00:00
  TRACK 02 AUDIO
    TITLE "DISC1Track33_02"
    INDEX 01 00:04:16
  TRACK 03 AUDIO
    TITLE "DISC1Track33_03"
    INDEX 01 00:04:37
  TRACK 04 AUDIO
    TITLE "DISC1Track33_04"
    INDEX 01 00:07:24
  TRACK 05 AUDIO
    TITLE "DISC1Track33_05"
    INDEX 01 00:09:64
  TRACK 06 AUDIO
    TITLE "DISC1Track33_06"
    INDEX 01 00:12:21
  TRACK 07 AUDIO
    TITLE "DISC1Track33_07"
    INDEX 01 00:12:45
  TRACK 08 AUDIO
    TITLE "DISC1Track33_08"
    INDEX 01 00:15:35
  TRACK 09 AUDIO
    TITLE "DISC1Track33_09"
    INDEX 01 00:18:45
  TRACK 10 AUDIO
    TITLE "DISC1Track33_10"
    INDEX 01 00:21:48
  TRACK 11 AUDIO
    TITLE "DISC1Track33_11"
    INDEX 01 00:21:71
  TRACK 12 AUDIO
    TITLE "DISC1Track33_12"
    INDEX 01 00:24:52
  TRACK 13 AUDIO
    TITLE "DISC1Track33_13"
    INDEX 01 00:26:72
  TRACK 14 AUDIO
    TITLE "DISC1Track33_14"
    INDEX 01 00:29:20
  TRACK 15 AUDIO
    TITLE "DISC1Track33_15"
    INDEX 01 00:29:45
  TRACK 16 AUDIO
    TITLE "DISC1Track33_16"
    INDEX 01 00:32:16
  TRACK 17 AUDIO
    TITLE "DISC1Track33_17"
    INDEX 01 00:34:74
  TRACK 18 AUDIO
    TITLE "DISC1Track33_18"
    INDEX 01 00:37:49
  TRACK 19 AUDIO
    TITLE "DISC1Track33_19"
    INDEX 01 00:37:72
  TRACK 20 AUDIO
    TITLE "DISC1Track33_20"
    INDEX 01 00:41:35
  TRACK 21 AUDIO
    TITLE "DISC1Track33_21"
    INDEX 01 00:44:29
  TRACK 22 AUDIO
    TITLE "DISC1Track33_22"
    INDEX 01 00:47:08
  TRACK 23 AUDIO
    TITLE "DISC1Track33_23"
    INDEX 01 00:47:39
  TRACK 24 AUDIO
    TITLE "DISC1Track33_24"
    INDEX 01 00:50:57
  TRACK 25 AUDIO
    TITLE "DISC1Track33_25"
    INDEX 01 00:53:22
  TRACK 26 AUDIO
    TITLE "DISC1Track33_26"
    INDEX 01 00:55:64
  TRACK 27 AUDIO
    TITLE "DISC1Track33_27"
    INDEX 01 00:56:15
  TRACK 28 AUDIO
    TITLE "DISC1Track33_28"
    INDEX 01 00:59:21
  TRACK 29 AUDIO
    TITLE "DISC1Track33_29"
    INDEX 01 01:02:09
  TRACK 30 AUDIO
    TITLE "DISC1Track33_30"
    INDEX 01 01:04:67
  TRACK 31 AUDIO
    TITLE "DISC1Track33_31"
    INDEX 01 01:05:22
  TRACK 32 AUDIO
    TITLE "DISC1Track33_32"
    INDEX 01 01:10:01
  TRACK 33 AUDIO
    TITLE "DISC1Track33_33"
    INDEX 01 01:13:48
  TRACK 34 AUDIO
    TITLE "DISC1Track33_34"
    INDEX 01 01:17:50
  TRACK 35 AUDIO
    TITLE "DISC1Track33_35"
    INDEX 01 01:17:66
  TRACK 36 AUDIO
    TITLE "DISC1Track33_36"
    INDEX 01 01:21:52
  TRACK 37 AUDIO
    TITLE "DISC1Track33_37"
    INDEX 01 01:26:39
  TRACK 38 AUDIO
    TITLE "DISC1Track33_38"
    INDEX 01 01:30:18
  TRACK 39 AUDIO
    TITLE "DISC1Track33_39"
    INDEX 01 01:30:45
  TRACK 40 AUDIO
    TITLE "DISC1Track33_40"
    INDEX 01 01:34:54
  TRACK 41 AUDIO
    TITLE "DISC1Track33_41"
    INDEX 01 01:38:44
  TRACK 42 AUDIO
    TITLE "DISC1Track33_42"
    INDEX 01 01:42:32
